<?xml version="1.0" standalone="no"?>
<!DOCTYPE svg PUBLIC "-//W3C//DTD SVG 20010904//EN"
 "http://www.w3.org/TR/2001/REC-SVG-20010904/DTD/svg10.dtd">
<svg version="1.0" xmlns="http://www.w3.org/2000/svg"
 width="443.000000pt" height="443.000000pt" viewBox="0 0 443.000000 443.000000"
 preserveAspectRatio="xMidYMid meet">
<metadata>
Created by potrace 1.14, written by Peter Selinger 2001-2017
</metadata>
<g transform="translate(0.000000,443.000000) scale(0.100000,-0.100000)"
fill="#000000" stroke="none">
<path d="M2788 4170 c-26 -20 -145 -82 -150 -79 -2 2 -13 -3 -26 -10 -41 -22
-114 -31 -257 -34 l-100 -2 -37 -37 c-21 -20 -38 -41 -38 -47 0 -6 -4 -11 -10
-11 -5 0 -10 -6 -10 -13 0 -7 -11 -29 -25 -48 -24 -31 -25 -41 -22 -112 4 -67
2 -82 -17 -110 -12 -17 -33 -51 -46 -74 -13 -24 -27 -43 -32 -43 -4 0 -8 -10
-8 -21 0 -12 -13 -45 -29 -73 -16 -28 -34 -68 -41 -89 -7 -22 -26 -48 -46 -64
-51 -38 -65 -73 -69 -171 -5 -106 -11 -143 -30 -179 -8 -15 -15 -33 -15 -39 0
-6 -17 -35 -39 -65 -34 -48 -53 -85 -57 -114 -1 -5 -3 -12 -4 -15 -1 -3 -4
-18 -6 -34 -3 -16 -9 -37 -14 -46 -5 -8 -11 -36 -15 -60 -4 -25 -10 -49 -14
-55 -5 -5 -11 -22 -15 -37 -3 -15 -15 -30 -26 -33 -12 -4 -20 -15 -20 -28 0
-21 -20 -116 -41 -202 -6 -22 -21 -56 -33 -75 -12 -19 -30 -55 -40 -80 -10
-25 -24 -52 -31 -60 -7 -8 -16 -31 -20 -50 -4 -19 -12 -41 -17 -47 -6 -7 -7
-13 -4 -13 4 0 2 -9 -5 -21 -20 -39 -131 -73 -184 -56 -20 6 -50 13 -110 23
-16 3 -46 13 -65 22 -28 12 -78 16 -245 17 -116 1 -215 -2 -220 -6 -10 -7 -72
-15 -166 -22 -20 -1 -43 -8 -51 -14 -8 -7 -30 -13 -49 -14 -34 -2 -64 -15
-129 -57 -73 -47 -102 -78 -131 -142 -27 -57 -30 -73 -26 -130 6 -82 32 -130
114 -215 34 -37 68 -77 75 -89 66 -119 92 -178 103 -234 4 -22 42 -82 77 -124
24 -27 114 -78 208 -116 30 -13 64 -27 75 -32 11 -4 31 -11 45 -15 14 -3 48
-12 75 -19 86 -24 135 -29 290 -31 199 -3 319 -13 380 -30 28 -7 68 -16 90
-19 22 -4 47 -8 55 -11 8 -2 32 -6 54 -10 21 -3 41 -7 45 -9 3 -2 39 -7 80
-10 41 -4 82 -11 93 -17 10 -5 18 -8 18 -5 0 3 33 -11 74 -30 71 -34 287 -103
401 -129 57 -13 94 -24 129 -39 22 -9 41 -14 44 -12 2 3 20 -1 38 -9 19 -8 34
-12 34 -9 0 3 9 0 21 -6 42 -23 146 -26 582 -19 92 2 167 6 167 10 0 3 10 5
23 4 12 -1 47 4 77 12 30 8 73 16 95 17 76 7 182 40 238 73 39 25 52 34 127
98 73 62 90 75 96 75 17 0 214 153 214 166 0 8 5 12 10 9 6 -3 10 -2 10 3 0 4
10 19 23 32 12 13 43 51 69 85 27 33 52 65 56 70 5 6 9 78 10 160 1 83 3 184
5 225 8 135 -45 245 -123 256 -19 3 -51 10 -70 17 -36 11 -91 16 -190 16 -86
0 -94 0 -110 -7 -16 -6 -184 -14 -280 -13 -30 0 -71 0 -90 0 -229 -7 -371 -2
-388 16 -3 3 -5 21 -4 39 2 33 -20 99 -43 126 -7 8 -32 51 -56 95 -42 79 -43
82 -45 184 -1 58 2 116 7 129 5 14 12 47 14 74 3 27 6 52 7 56 1 4 -2 27 -7
52 -4 25 -9 72 -9 105 -1 64 -15 117 -47 177 -11 20 -20 54 -20 75 -1 21 -12
61 -26 89 -19 42 -34 57 -76 79 -29 16 -53 29 -55 30 -2 2 -5 15 -8 31 -3 16
-12 40 -19 54 -54 95 -61 135 -41 225 3 17 8 41 11 54 7 37 44 103 78 139 17
17 27 32 23 32 -5 0 -1 11 7 24 9 12 18 39 22 58 7 35 50 83 132 147 25 18 40
38 37 45 -17 45 62 10 128 -56 42 -42 53 -48 90 -48 24 0 65 7 91 15 54 16 88
18 162 12 59 -6 83 7 61 32 -8 9 -15 19 -15 24 -1 16 -32 67 -41 67 -6 0 -19
9 -30 20 -10 10 -37 28 -58 39 -22 11 -58 41 -80 66 -22 25 -45 45 -52 45 -7
0 -46 34 -86 75 -88 88 -156 134 -250 167 -92 33 -152 35 -186 8z"/>
</g>
</svg>
